/* XPM */
static char *e034afe9b02a4747e9f49ce8b7419117AUdNUY1nV2jL5qhu[] = {
/* columns rows colors chars-per-pixel */
"64 64 12 1 ",
"  c #3A3A3A",
". c #3F3F3F",
"X c #434343",
"o c gray28",
"O c #484848",
"+ c gray31",
"@ c #505050",
"# c gray34",
"$ c #5A5A5A",
"% c #5F5F5F",
"& c gray38",
"* c #656565",
/* pixels */
"                           %***O                       X***&    ",
"                           %***O                       X***&    ",
"                           %***O                       X***&    ",
"                           %***O                       X***&    ",
"                           %***O                       X***&    ",
"                           %***O                       X***&    ",
"                           %***O                       X***&    ",
"                           %***O                       X***&    ",
"                           %***O                       X***&    ",
"                           %***O                       X***&    ",
"                           %***O                       X***&    ",
"ooooooooooooooooooooooooooo&***+ooooooooooooooooooooooo+***&oooo",
"****************************************************************",
"****************************************************************",
"****************************************************************",
"&&&&&&&****&&&&&&&&&&&&&&&&&&&&&&&&&&&&&***&&&&&&&&&&&&&&&&&&&&&",
"      O***%                            #***#                    ",
"      O***%                            #***#                    ",
"      O***%                            #***@                    ",
"      O***%                            #***@                    ",
"      O***%                            #***#                    ",
"      O***%                            #***#                    ",
"      O***%                            #***#                    ",
"      O***%                            #***#                    ",
"      O***%                            #***#                    ",
"      O***%                            #***#                    ",
"      O***%                            #***#                    ",
"      O***%                            #***#                    ",
"%%%%%%&***&%%%%%%%%%%%%%%%%%%%%%%%%%%%%&***&%%%%%%%%%%%%%%%%%%%%",
"****************************************************************",
"****************************************************************",
"****************************************************************",
"OOOOOOOOOOOOOOOOOOOOOOo****+OOOOOOOOOOOOOOOOOOOOOOO@***&OOOOOOOO",
"                       &***X                       O***%        ",
"                       &***X                       O***%        ",
"                       &***X                       O***%        ",
"                       &***X                       O***%        ",
"                       &***X                       O***%        ",
"                       &***X                       O***%        ",
"                       &***X                       O***%        ",
"                       &***X                       O***%        ",
"                       &***X                       O***%        ",
"                       &***X                       O***%        ",
"                       &***X                       O***%        ",
"@@@@@@@@@@@@@@@@@@@@@@@****#@@@@@@@@@@@@@@@@@@@@@@@#***&@@@@@@@@",
"****************************************************************",
"****************************************************************",
"****************************************************************",
"##########$***&############################%***%################",
"          o***&                            @***#                ",
"          o***&                            @***#                ",
"          o***&                            @***#                ",
"          o***&                            @***#                ",
"          o***&                            @***#                ",
"          o***&                            @***#                ",
"          o***&                            @***#                ",
"          o***&                            @***#                ",
"          o***&                            @***#                ",
"          o***&                            @***#                ",
"          o***&                            @***#                ",
"..........O***&............................@***$................",
"****************************************************************",
"****************************************************************",
"****************************************************************"
};
