/* XPM */
static char *a86c1a698910496d871cbe68545fc6eaqswC79hXkkxY30Ug[] = {
/* columns rows colors chars-per-pixel */
"64 64 37 1 ",
"  c #FF8B57",
". c #FF8F57",
"X c #FF8F5A",
"o c #FF9057",
"O c #FF905B",
"+ c #FF9658",
"@ c #FF925C",
"# c #FF9B58",
"$ c #FF9F59",
"% c #FFA059",
"& c #FFA55A",
"* c #FFAA5A",
"= c #FF9962",
"- c #FF9C64",
"; c #FFA76C",
": c #FFB76D",
"> c #FFB86D",
", c #FFAB70",
"< c #FFAC71",
"1 c #FFB772",
"2 c #FFBB72",
"3 c #FFB779",
"4 c #FFB878",
"5 c #FFBF78",
"6 c #FFBC7D",
"7 c #FFC077",
"8 c #FFC079",
"9 c #FFC67F",
"0 c #FFC282",
"q c #FFC483",
"w c #FFC785",
"e c #FFC982",
"r c #FFC984",
"t c #FFCD87",
"y c #FFCD8A",
"u c #FFCF8C",
"i c #FFD18D",
/* pixels */
"************eiyX O********************************************2i",
"************eiyX O********************************************2i",
"************eiyX O********************************************2i",
"************eiyX O********************************************2i",
"************eiyX O********************************************2i",
"************eiyX O********************************************2i",
"************eiyX O********************************************2i",
"************eiyX o********************************************2i",
"************eiyX .&*******************************************2i",
"************eiyX  +*******************************************2i",
"%***********eiyX   +&*****************************************2i",
" .ooooooooo.0iyX    ..oooooooooooooooooooooooooooooooooooooooo<i",
"            0iyX                                              ,i",
"OOOOOOOOOOOXqiy@OOOOOOOOOOOOOOOOOOOOOOOOOOOOOOOOOOOOOOOOOOOOOO<i",
"yyyyyyyyyyyyiiiyyyyyyyyyyyyyyyyyyyyyyyyyyyyyyyyyyyyyyyyyyyyyyyyi",
"iiiiiiiiiiiiiiiiiiiiiiiiiiiiiiiiiiiiiiiiiiiiiiiiiiiiiiiiiiiiiiii",
"rrrrrrrrrrrrrrrrrrrrrrrrrrrrrrrrrrrrryiiwwwrrrrrrrrrrrrrrrrrrrrr",
"*************************************7ii= .*********************",
"*************************************7ii= .&********************",
"*************************************7ii= .&********************",
"*************************************7ii= .&********************",
"*************************************7ii= .&********************",
"*************************************7ii= .&********************",
"*************************************7ii= .&********************",
"*************************************7ii= .&********************",
"*************************************7ii=  $********************",
"*************************************7ii=  .&*******************",
"#&&&&&&&&&&&&&&&&&&&&&&&&&&&&&&&&&&&*8ii=   .$&&&&&&&&&&&&&&&&&&",
" ....................................3ii=     ..................",
"                                     3ii=                       ",
"-------------------------------------6ii;-----------------------",
"iiiiiiiiiiiiiiiiiiiiiiiiiiiiiiiiiiiiiiiiiiiiiiiiiiiiiiiiiiiiiiii",
"iiiiiiiiiiiiiiiiiiiiiiiiiiiiiiiiiiiiiiiiiiiiiiiiiiiiiiiiiiiiiiii",
"777777777777tiu33477777777777777777777777777777777777777777777qi",
"************eiyX o********************************************2i",
"************eiyX O********************************************2i",
"************eiyX O********************************************2i",
"************eiyX O********************************************2i",
"************eiyX O********************************************2i",
"************eiyX O********************************************2i",
"************eiyX O********************************************2i",
"************eiyX .********************************************2i",
"************eiyX  %*******************************************2i",
"************eiyX  .&******************************************2i",
"+$%%%%%%%%%%qiyX   .#%%%%%%%%%%%%%%%%%%%%%%%%%%%%%%%%%%%%%%%%%1i",
"            0iyX                                              ,i",
"            0iyX                                              ,i",
",,,,,,,,,,,,riy<,,,,,,,,,,,,,,,,,,,,,,,,,,,,,,,,,,,,,,,,,,,,,,4i",
"iiiiiiiiiiiiiiiiiiiiiiiiiiiiiiiiiiiiiiiiiiiiiiiiiiiiiiiiiiiiiiii",
"iiiiiiiiiiiiiiiiiiiiiiiiiiiiiiiiiiiiiiiiiiiiiiiiiiiiiiiiiiiiiiii",
">>>>>>>>>>>>>>>>>>>>>>>>>>>>>>>>>>>>>9ii<;;:>>>>>>>>>>>>>>>>>>>>",
"*************************************7ii= .&********************",
"*************************************7ii= .&********************",
"*************************************7ii= .&********************",
"*************************************7ii= .&********************",
"*************************************7ii= .&********************",
"*************************************7ii= .&********************",
"*************************************7ii= .&********************",
"*************************************7ii= .&********************",
"*************************************7ii= .&********************",
"*************************************7ii=  $********************",
"*************************************7ii=  .&*******************",
"#&&&&&&&&&&&&&&&&&&&&&&&&&&&&&&&&&&&&5ii=   .$&&&&&&&&&&&&&&&&&&",
" ....................................3ii=     .................."
};
