/* XPM */
static char *_281365585a34d10a5f6da1115a1b75bDyWCTUlhrAcYne1p[] = {
/* columns rows colors chars-per-pixel */
"64 64 26 1 ",
"  c #C1403A",
". c #C6453D",
"X c #C8483E",
"o c #CB4E42",
"O c #CE4E41",
"+ c #CE5043",
"@ c #CF5345",
"# c #D05042",
"$ c #D25344",
"% c #D25546",
"& c #D45646",
"* c #D65948",
"= c #D85B4A",
"- c #DA5D4B",
"; c #DB5F4C",
": c #DB604C",
"> c #DD624E",
", c #DF644F",
"< c #DF6450",
"1 c #E06651",
"2 c #E26852",
"3 c #E46A53",
"4 c #E56B54",
"5 c #E76D56",
"6 c #E86E57",
"7 c #EB7259",
/* pixels */
">>>>27777774OOO->>>>>>4777777777777777777777777&OO%>>>>>>1777777",
">>>>27777774OOO->>>>>>4777777777777777777777777&OO%>>>>>>1777777",
">>>>27777774OOO->>>>>>4777777777777777777777777&OO%>>>>>>1777777",
">>>>27777774OOO->>>>>>4777777777777777777777777&OO%>>>>>>1777777",
">>>>27777774OOO->>>>>>4777777777777777777777777&OO%>>>>>>1777777",
">>>>27777774OOO->>>>>>4777777777777777777777777&OO%>>>>>>1777777",
">>>>27777774OOO->>>>>>4777777777777777777777777&OO%>>>>>>1777777",
">>>>27777774OOO->>>>>>4777777777777777777777777&OO%>>>>>>1777777",
">>>>27777774OOO->>>>>>4777777777777777777777777&OO%>>>>>>1777777",
">>>>27777774OOO->>>>>>4777777777777777777777777&OO%>>>>>>1777777",
">>>>27777774OOO->>>>>>4777777777777777777777777&OO%>>>>>>1777777",
">>>>17777771OOO=>>>>>>2777777777777777777777777#OO$>>>>>>,777777",
"oooo+******+OOOO%&&&&&&***********************%OOOO$&&&&&&******",
"    .OOOOOOOOOOOOOOOOOOOOOOOOOOOOOOOOOOOOOOOOOOOOOOOOOOOOOOOOOOO",
"    .OOOOOOOOOOOOOOOOOOOOOOOOOOOOOOOOOOOOOOOOOOOOOOOOOOOOOOOOOOO",
"@@@@%-;;;;;;;;;;;;;;;;;;;;;;*OOOO#*******;;;;;;;;;;;;;;;;;;;;;;;",
">>>>1777777777777777777777777*OOO:>>>>>>577777777777777777777777",
">>>>2777777777777777777777777;OOO>>>>>>>677777777777777777777777",
">>>>2777777777777777777777777;OOO>>>>>>>677777777777777777777777",
">>>>2777777777777777777777777;OOO>>>>>>>677777777777777777777777",
">>>>2777777777777777777777777;OOO>>>>>>>677777777777777777777777",
">>>>2777777777777777777777777;OOO>>>>>>>677777777777777777777777",
">>>>2777777777777777777777777;OOO>>>>>>>677777777777777777777777",
">>>>2777777777777777777777777;OOO>>>>>>>677777777777777777777777",
">>>>2777777777777777777777777;OOO>>>>>>>677777777777777777777777",
">>>>2777777777777777777777777;OOO>>>>>>>677777777777777777777777",
">>>>2777777777777777777777777;OOO>>>>>>>677777777777777777777777",
">>>>2777777777777777777777777;OOO>>>>>>>677777777777777777777777",
">>>>2777777777777777777777777-OOO>>>>>>>677777777777777777777777",
">>>>,777777777777777777777776%OOO=>>>>>>377777777777777777777777",
"    .OOOOOOOOOOOOOOOOOOOOOOOOOOOOOOOOOOOOOOOOOOOOOOOOOOOOOOOOOOO",
"    .OOOOOOOOOOOOOOOOOOOOOOOOOOOOOOOOOOOOOOOOOOOOOOOOOOOOOOOOOOO",
"    .OOOOOOOOOOOOOOOOOOOOOOOOOOOOOOOOOOOOOOOOOOOOOOOOOOOOOOOOOOO",
"****-222222*OOO$------:22222222222222222222222>OOOO=------122222",
">>>>17777773OOO->>>>>>4777777777777777777777777%OO%>>>>>>1777777",
">>>>27777774OOO->>>>>>4777777777777777777777777&OO%>>>>>>1777777",
">>>>27777774OOO->>>>>>4777777777777777777777777&OO%>>>>>>1777777",
">>>>27777774OOO->>>>>>4777777777777777777777777&OO%>>>>>>1777777",
">>>>27777774OOO->>>>>>4777777777777777777777777&OO%>>>>>>1777777",
">>>>27777774OOO->>>>>>4777777777777777777777777&OO%>>>>>>1777777",
">>>>27777774OOO->>>>>>4777777777777777777777777&OO%>>>>>>1777777",
">>>>27777774OOO->>>>>>4777777777777777777777777&OO%>>>>>>1777777",
">>>>27777774OOO->>>>>>4777777777777777777777777&OO%>>>>>>1777777",
">>>>27777774OOO->>>>>>4777777777777777777777777&OO%>>>>>>1777777",
">>>>27777774OOO->>>>>>4777777777777777777777777&OO%>>>>>>1777777",
">>>>27777774OOO->>>>>>4777777777777777777777777&OO%>>>>>>1777777",
">>>>17777773OOO->>>>>>4777777777777777777777777%OO%>>>>>>1777777",
"****-122221&OOO$------:12222222222222222222222;OOOO*------122221",
"    .OOOOOOOOOOOOOOOOOOOOOOOOOOOOOOOOOOOOOOOOOOOOOOOOOOOOOOOOOOO",
"    .OOOOOOOOOOOOOOOOOOOOOOOOOOOOOOOOOOOOOOOOOOOOOOOOOOOOOOOOOOO",
"....X#++++++++++++++++++++++OOOOOO+######++++++++++++++++++++++O",
">>>><777777777777777777777777%OOO->>>>>>477777777777777777777777",
">>>>2777777777777777777777777;OOO>>>>>>>677777777777777777777777",
">>>>2777777777777777777777777;OOO>>>>>>>677777777777777777777777",
">>>>2777777777777777777777777;OOO>>>>>>>677777777777777777777777",
">>>>2777777777777777777777777;OOO>>>>>>>677777777777777777777777",
">>>>2777777777777777777777777;OOO>>>>>>>677777777777777777777777",
">>>>2777777777777777777777777;OOO>>>>>>>677777777777777777777777",
">>>>2777777777777777777777777;OOO>>>>>>>677777777777777777777777",
">>>>2777777777777777777777777;OOO>>>>>>>677777777777777777777777",
">>>>2777777777777777777777777;OOO>>>>>>>677777777777777777777777",
">>>>2777777777777777777777777;OOO>>>>>>>677777777777777777777777",
">>>>2777777777777777777777777;OOO>>>>>>>677777777777777777777777",
">>>>2777777777777777777777777;OOO>>>>>>>677777777777777777777777"
};
