/* XPM */
static char *_378f9d7962f4491a6d5c7ac8e546ba0uUWQjj2MaW6ZmOdc[] = {
/* columns rows colors chars-per-pixel */
"64 64 56 1 ",
"  c #59301F",
". c #5B3221",
"X c #5C3221",
"o c #5F3422",
"O c #613623",
"+ c #613725",
"@ c #663A26",
"# c #683B27",
"$ c #653B28",
"% c #693E2B",
"& c #693F2C",
"* c #6B402D",
"= c #6E422F",
"- c #71422C",
"; c #73442E",
": c #6E4432",
"> c #704531",
", c #774630",
"< c #744937",
"1 c #784933",
"2 c #7C4A32",
"3 c #7E4C33",
"4 c #744A38",
"5 c #7F513B",
"6 c #7B503E",
"7 c #855137",
"8 c #875238",
"9 c #82533C",
"0 c #83543E",
"q c #89543C",
"w c #845845",
"e c #8D5C44",
"r c #895C49",
"t c #8C5F4C",
"y c #926047",
"u c #96634A",
"i c #90624E",
"p c #9B664B",
"a c #99664C",
"s c #956752",
"d c #996A55",
"f c #9C6C57",
"g c #A06B50",
"h c #A06F5A",
"j c #A0705B",
"k c #A3725D",
"l c #A7765F",
"z c #A8735B",
"x c #AB7862",
"c c #AD7A63",
"v c #B17E67",
"b c #B5816A",
"n c #BE886F",
"m c #BF8970",
"M c #C38C73",
"N c #C48D74",
/* pixels */
"                                                                ",
" kNNNNNNNNNNv >gggggggggggggggggggggggggggggggggge @88888888888 ",
" kNNNNNNNNNNv >gggggggggggggggggggggggggggggggggge @88888888888 ",
" kNNNNNNNNNNv >gggggggggggggggggggggggggggggggggge @88888888888 ",
" kNNNNNNNNNNv >gggggggggggggggggggggggggggggggggge @88888888888 ",
" kNNNNNNNNNNv >gggggggggggggggggggggggggggggggggge @88888888888 ",
" kNNNNNNNNNNv >gggggggggggggggggggggggggggggggggge @88888888888 ",
" kNNNNNNNNNNv >gggggggggggggggggggggggggggggggggge @88888888888 ",
" kNNNNNNNNNNv >gggggggggggggggggggggggggggggggggge @88888888888 ",
" kNNNNNNNNNNv >gggggggggggggggggggggggggggggggggge @88888888888 ",
" kNNNNNNNNNNv >gggggggggggggggggggggggggggggggggge @88888888888 ",
" svvvvvvvvvvj *yyyyyyagggayyyyyyyyyyyyyyyyyyyyyyy0 @22222222222 ",
"                     $ppp+                                      ",
" O@@@@@@@@@@@@@@@@@@@;888-@@@@@X 466666666666666666666666666666 ",
" ,88888888888888888888888888888@ vNNNNNNNNNNNNNNNNNNNNNNNNNNNNN ",
" ,88888888888888888888888888888@ vNNNNNNNNNNNNNNNNNNNNNNNNNNNNN ",
" ,88888888888888888888888888888@ vNNNNNNNNNNNNNNNNNNNNNNNNNNNNN ",
" ,88888888888888888888888888888@ vNNNNNNNNNNNNNNNNNNNNNNNNNNNNN ",
" ,88888888888888888888888888888@ vNNNNNNNNNNNNNNNNNNNNNNNNNNNNN ",
" ,88888888888888888888888888888@ vNNNNNNNNNNNNNNNNNNNNNNNNNNNNN ",
" ,88888888888888888888888888888@ vNNNNNNNNNNNNNNNNNNNNNNNNNNNNN ",
" ,88888888888888888888888888888@ vNNNNNNNNNNNNNNNNNNNNNNNNNNNNN ",
" ,88888888888888888888888888888@ vNNNNNNNNNNNNNNNNNNNNNNNNNNNNN ",
" ,88888888888888888888888888888@ vNNNNNNNNNNNNNNNNNNNNNNNNNNNNN ",
" #-----------------------------o rssssssssssssssssssssssssssxNN ",
"                                                            +zz ",
" wddddddddddt $9999999999999999999999999999999999< O--------288 ",
" kNNNNNNNNNNv >gggggggggggggggggggggggggggggggggge @88888888888 ",
" kNNNNNNNNNNv >gggggggggggggggggggggggggggggggggge @88888888888 ",
" kNNNNNNNNNNv >gggggggggggggggggggggggggggggggggge @88888888888 ",
" kNNNNNNNNNNv >gggggggggggggggggggggggggggggggggge @88888888888 ",
" kNNNNNNNNNNv >gggggggggggggggggggggggggggggggggge @88888888888 ",
" kNNNNNNNNNNv >gggggggggggggggggggggggggggggggggge @88888888888 ",
" kNNNNNNNNNNv >gggggggggggggggggggggggggggggggggge @88888888888 ",
" kNNNNNNNNNNv >gggggggggggggggggggggggggggggggggge @88888888888 ",
" kNNNNNNNNNNv >gggggggggggggggggggggggggggggggggge @88888888888 ",
" kNNNNNNNNNNv >gggggggggggggggggggggggggggggggggge @88888888888 ",
" *<<<<<<<<<<: o%%%%%%%%%%%%%%%%%%%%%%%=pgy=ugu=%%$ X+++++++++++ ",
"                                       lnf hnj                  ",
" -33333333333333333333333333333+ kvvvvbNNMbNNNbvvvvvvvvvvvvvvvv ",
" ,88888888888888888888888888888@ vNNNNNNNNNNNNNNNNNNNNNNNNNNNNN ",
" ,88888888888888888888888888888@ vNNNNNNNNNNNNNNNNNNNNNNNNNNNNN ",
" ,88888888888888888888888888888@ vNNNNNNNNNNNNNNNNNNNNNNNNNNNNN ",
" ,88888888888888888888888888888@ vNNNNNNNNNNNNNNNNNNNNNNNNNNNNN ",
" ,88888888888888888888888888888@ vNNNNNNNNNNNNNNNNNNNNNNNNNNNNN ",
" ,88888888888888888888888888888@ vNNNNNNNNNNNNNNNNNNNNNNNNNNNNN ",
" ,88888888888888888888888888888@ vNNNNNNNNNNNNNNNNNNNNNNNNNNNNN ",
" ,88888888888888888888888888888@ vNNNNNNNNNNNNNNNNNNNNNNNNNNNNN ",
" ,88888888888888888888888888888@ vNNNNNNNNNNNNNNNNNNNNNNNNNNNNN ",
" ,88777777777777777777777777777@ cmmmmmmmmmmmmmmmmmmmmmmmmmmmmm ",
" 1q1                                                            ",
" kNx+XXXXXXXX  ...................................  ........... ",
" kNNNNNNNNNNv >gggggggggggggggggggggggggggggggggge @88888888888 ",
" kNNNNNNNNNNv >gggggggggggggggggggggggggggggggggge @88888888888 ",
" kNNNNNNNNNNv >gggggggggggggggggggggggggggggggggge @88888888888 ",
" kNNNNNNNNNNv >gggggggggggggggggggggggggggggggggge @88888888888 ",
" kNNNNNNNNNNv >gggggggggggggggggggggggggggggggggge @88888888888 ",
" kNNNNNNNNNNv >gggggggggggggggggggggggggggggggggge @88888888888 ",
" kNNNNNNNNNNv >gggggggggggggggggggggggggggggggggge @88888888888 ",
" kNNNNNNNNNNv >gggggggggggggggggggggggggggggggggge @88888888888 ",
" kNNNNNNNNNNv >gggggggggggggggggggggggggggggggggge @88888888888 ",
" kNNNNNNNNNNv >gggggggggggggggggggggggggggggggggge @88888888888 ",
" ixxxxxxxxxxd &eeeeeeeeeeeeeeeeeeeeeeeeeeeeeeeeee5 +11111111111 ",
"                                                                "
};
